<svg width="1428" height="610" viewBox="0 0 1428 610" fill="none" xmlns="http://www.w3.org/2000/svg">
<path d="M582.785 117.075L634.884 118.815M610.587 110.21L594.261 92.2675M629.318 130.847L617.868 118.247M116.542 580.375L168.641 582.116M144.344 573.511L128.018 555.568M163.075 594.147L151.625 581.547M1196.98 28.4255L1249.08 30.1658M1224.78 21.5608L1208.46 3.6181M1243.51 42.1974L1232.06 29.5974M772.542 297.375L824.641 299.116M800.344 290.511L784.018 272.568M819.075 311.147L807.625 298.547M61.9728 30.9293L114.072 32.6696M89.7747 24.0646L73.4491 6.1219M108.506 44.7012L97.0563 32.1012M705.119 524.905L734.317 531.026L737.769 545.929L728.075 556.226L712.991 553.68L705.119 524.905ZM705.119 524.905L720.742 539.612M25.0097 479.766L54.7354 482.292L59.9727 496.665L51.6028 508.064L36.3214 507.371L25.0097 479.766ZM25.0097 479.766L42.3047 492.464M833.741 18.3957L863.091 13.0485L871.91 25.5475L866.818 38.7411L851.888 42.0744L833.741 18.3957ZM833.741 18.3957L853.758 26.1214M1181.44 155.161L1210.79 149.814L1219.61 162.313L1214.52 175.506L1199.59 178.839L1181.44 155.161ZM1181.44 155.161L1201.46 162.886M706.749 28.1765C708.024 25.514 707.846 22.2889 706.252 19.2105C704.658 16.1322 701.78 13.4529 698.251 11.762L678.29 2.19873L660.254 39.8449L683.542 51.0021C686.189 52.2703 688.347 54.2798 689.543 56.5885C690.738 58.8972 690.872 61.3161 689.915 63.313M706.749 28.1765L689.915 63.313M706.749 28.1765C708.024 25.514 710.65 23.6323 714.047 22.9452C717.445 22.2582 721.337 22.8222 724.866 24.5131L744.827 34.0764L726.791 71.7226L703.503 60.5654C700.856 59.2972 697.937 58.8742 695.389 59.3895C692.841 59.9048 690.872 61.3161 689.915 63.313M49.65 328.601C50.9466 325.776 50.7653 322.354 49.146 319.089C47.5267 315.823 44.602 312.981 41.0154 311.187L20.7302 301.043L2.39687 340.985L26.063 352.82C28.753 354.165 30.9465 356.297 32.1609 358.746C33.3754 361.195 33.5114 363.762 32.5389 365.88M49.65 328.601L32.5389 365.88M49.65 328.601C50.9466 325.776 53.6149 323.779 57.0679 323.05C60.5209 322.321 64.4757 322.919 68.0624 324.713L88.3476 334.857L70.0143 374.799L46.3482 362.964C43.6582 361.619 40.6921 361.17 38.1023 361.717C35.5126 362.264 33.5114 363.762 32.5389 365.88M1010.78 269.715C1012.08 266.89 1011.9 263.468 1010.28 260.202C1008.66 256.937 1005.73 254.094 1002.15 252.301L981.862 242.157L963.529 282.099L987.195 293.933C989.885 295.279 992.078 297.41 993.293 299.86C994.507 302.309 994.643 304.875 993.671 306.994M1010.78 269.715L993.671 306.994M1010.78 269.715C1012.08 266.89 1014.75 264.893 1018.2 264.164C1021.65 263.435 1025.61 264.033 1029.19 265.826L1049.48 275.97L1031.15 315.912L1007.48 304.078C1004.79 302.732 1001.82 302.284 999.234 302.831C996.644 303.378 994.643 304.875 993.671 306.994M1105.57 477.291L1135.3 479.752L1140.57 494.113L1132.22 505.531L1116.94 504.871L1105.57 477.291ZM1105.57 477.291L1122.89 489.952M509.402 361.34C510.446 359.299 512.258 357.755 514.44 357.05C516.622 356.345 518.995 356.535 521.036 357.579L562.604 378.837M509.402 361.34C508.358 363.382 508.168 365.754 508.873 367.936C509.578 370.118 511.122 371.93 513.163 372.974L554.73 394.232L586.223 332.651L544.656 311.393C542.614 310.349 540.242 310.159 538.06 310.864C535.878 311.57 534.066 313.113 533.021 315.154L509.402 361.34ZM276.147 71.3402C277.191 69.2986 279.003 67.7554 281.185 67.0501C283.367 66.3448 285.74 66.5351 287.781 67.5791L329.349 88.8366M276.147 71.3402C275.103 73.3817 274.913 75.7544 275.618 77.9362C276.323 80.1181 277.867 81.9304 279.908 82.9744L321.475 104.232L352.968 42.6507L311.401 21.3932C309.359 20.3492 306.986 20.1589 304.805 20.8642C302.623 21.5696 300.811 23.1127 299.766 25.1543L276.147 71.3402ZM1013.15 71.3402C1014.19 69.2986 1016 67.7554 1018.19 67.0501C1020.37 66.3448 1022.74 66.5351 1024.78 67.5791L1066.35 88.8366M1013.15 71.3402C1012.1 73.3817 1011.91 75.7544 1012.62 77.9362C1013.32 80.1181 1014.87 81.9304 1016.91 82.9744L1058.48 104.232L1089.97 42.6507L1048.4 21.3932C1046.36 20.3492 1043.99 20.1589 1041.8 20.8642C1039.62 21.5696 1037.81 23.1127 1036.77 25.1543L1013.15 71.3402ZM293.311 289.625C294.581 286.96 294.395 283.735 292.795 280.661C291.194 277.586 288.31 274.913 284.777 273.23L264.795 263.71L246.842 301.396L270.155 312.502C272.804 313.764 274.967 315.769 276.168 318.075C277.368 320.381 277.507 322.8 276.555 324.799M293.311 289.625L276.555 324.799M293.311 289.625C294.581 286.96 297.202 285.073 300.598 284.378C303.995 283.684 307.887 284.239 311.42 285.922L331.403 295.441L313.449 333.127L290.137 322.021C287.487 320.759 284.567 320.342 282.02 320.863C279.473 321.384 277.507 322.8 276.555 324.799M1387.06 44.6254C1388.33 41.9601 1388.14 38.7354 1386.54 35.6605C1384.94 32.5857 1382.06 29.9128 1378.52 28.2296L1358.54 18.7103L1340.59 56.396L1363.9 67.502C1366.55 68.7643 1368.71 70.769 1369.91 73.0751C1371.11 75.3813 1371.25 77.7998 1370.3 79.7988M1387.06 44.6254L1370.3 79.7988M1387.06 44.6254C1388.33 41.9601 1390.95 40.0726 1394.34 39.3781C1397.74 38.6836 1401.63 39.239 1405.17 40.9221L1425.15 50.4415L1407.19 88.1273L1383.88 77.0213C1381.23 75.759 1378.31 75.3424 1375.77 75.8633C1373.22 76.3842 1371.25 77.7998 1370.3 79.7988M428.311 530.625C429.581 527.96 429.395 524.735 427.795 521.661C426.194 518.586 423.31 515.913 419.777 514.23L399.795 504.71L381.842 542.396L405.155 553.502C407.804 554.764 409.967 556.769 411.168 559.075C412.368 561.381 412.507 563.8 411.555 565.799M428.311 530.625L411.555 565.799M428.311 530.625C429.581 527.96 432.202 526.073 435.598 525.378C438.995 524.684 442.887 525.239 446.42 526.922L466.403 536.441L448.449 574.127L425.137 563.021C422.487 561.759 419.567 561.342 417.02 561.863C414.473 562.384 412.507 563.8 411.555 565.799M1307.31 432.625C1308.58 429.96 1308.4 426.735 1306.79 423.661C1305.19 420.586 1302.31 417.913 1298.78 416.23L1278.8 406.71L1260.84 444.396L1284.15 455.502C1286.8 456.764 1288.97 458.769 1290.17 461.075C1291.37 463.381 1291.51 465.8 1290.56 467.799M1307.31 432.625L1290.56 467.799M1307.31 432.625C1308.58 429.96 1311.2 428.073 1314.6 427.378C1317.99 426.684 1321.89 427.239 1325.42 428.922L1345.4 438.441L1327.45 476.127L1304.14 465.021C1301.49 463.759 1298.57 463.342 1296.02 463.863C1293.47 464.384 1291.51 465.8 1290.56 467.799M450.282 113.565L479.62 108.154L488.466 120.633L483.403 133.838L468.481 137.204L450.282 113.565ZM450.282 113.565L470.316 121.247M5.02682 176.565L34.3647 171.154L43.2112 183.633L38.1482 196.838L23.226 200.204L5.02682 176.565ZM5.02682 176.565L25.0611 184.247M1378.03 249.565L1407.36 244.154L1416.21 256.633L1411.15 269.838L1396.23 273.204L1378.03 249.565ZM1378.03 249.565L1398.06 257.247M624.569 132.64C625.757 130.072 631.648 130.268 637.725 133.08C643.803 135.892 647.766 140.253 646.578 142.822C645.39 145.391 639.499 145.194 633.422 142.383C627.344 139.571 623.381 135.209 624.569 132.64ZM633.176 114.035C634.365 111.466 640.255 111.663 646.332 114.474C652.41 117.286 656.374 121.648 655.185 124.217C653.997 126.786 648.106 126.589 642.029 123.777C635.951 120.966 631.988 116.604 633.176 114.035ZM158.326 595.941C159.514 593.372 165.405 593.569 171.482 596.38C177.56 599.192 181.523 603.554 180.335 606.123C179.147 608.691 173.256 608.495 167.179 605.683C161.101 602.871 157.138 598.51 158.326 595.941ZM166.933 577.335C168.122 574.766 174.012 574.963 180.09 577.775C186.167 580.586 190.131 584.948 188.942 587.517C187.754 590.086 181.864 589.889 175.786 587.078C169.708 584.266 165.745 579.904 166.933 577.335ZM1238.77 43.991C1239.95 41.4221 1245.84 41.6189 1251.92 44.4305C1258 47.2421 1261.96 51.6039 1260.77 54.1727C1259.59 56.7416 1253.7 56.5449 1247.62 53.7333C1241.54 50.9217 1237.58 46.5599 1238.77 43.991ZM1247.37 25.3855C1248.56 22.8166 1254.45 23.0134 1260.53 25.825C1266.61 28.6366 1270.57 32.9983 1269.38 35.5672C1268.19 38.1361 1262.3 37.9393 1256.23 35.1277C1250.15 32.3161 1246.18 27.9544 1247.37 25.3855ZM814.326 312.941C815.514 310.372 821.405 310.569 827.482 313.38C833.56 316.192 837.523 320.554 836.335 323.123C835.147 325.691 829.256 325.495 823.179 322.683C817.101 319.872 813.138 315.51 814.326 312.941ZM822.933 294.335C824.122 291.766 830.012 291.963 836.09 294.775C842.167 297.586 846.131 301.948 844.942 304.517C843.754 307.086 837.864 306.889 831.786 304.078C825.708 301.266 821.745 296.904 822.933 294.335ZM103.757 46.4948C104.946 43.9259 110.836 44.1227 116.913 46.9343C122.991 49.7459 126.955 54.1077 125.766 56.6765C124.578 59.2454 118.687 59.0487 112.61 56.2371C106.532 53.4255 102.569 49.0637 103.757 46.4948ZM112.364 27.8893C113.553 25.3204 119.443 25.5172 125.521 28.3288C131.598 31.1404 135.562 35.5021 134.373 38.071C133.185 40.6399 127.295 40.4431 121.217 37.6315C115.139 34.8199 111.176 30.4582 112.364 27.8893ZM726.136 558.286L739.707 543.869L745.886 549.685L732.315 564.102L726.136 558.286ZM727.652 542.233C727.719 544.441 725.983 546.285 723.775 546.352C721.567 546.418 719.723 544.682 719.656 542.474C719.589 540.266 721.325 538.422 723.533 538.355C725.742 538.288 727.586 540.024 727.652 542.233ZM49.9288 510.344L61.6467 494.385L68.4863 499.407L56.7684 515.366L49.9288 510.344ZM49.4823 494.226C49.8169 496.409 48.3179 498.451 46.1343 498.785C43.9506 499.12 41.9092 497.621 41.5746 495.437C41.2399 493.254 42.7389 491.212 44.9225 490.878C47.1062 490.543 49.1476 492.042 49.4823 494.226ZM865.799 41.3798L872.928 22.9088L880.844 25.964L873.716 44.4351L865.799 41.3798ZM861.147 25.9411C862.042 27.9609 861.13 30.3237 859.11 31.2186C857.09 32.1134 854.727 31.2015 853.832 29.1817C852.938 27.162 853.85 24.7992 855.869 23.9043C857.889 23.0094 860.252 23.9214 861.147 25.9411ZM1213.5 178.145L1220.63 159.674L1228.54 162.729L1221.42 181.2L1213.5 178.145ZM1208.85 162.706C1209.74 164.726 1208.83 167.089 1206.81 167.984C1204.79 168.878 1202.43 167.967 1201.53 165.947C1200.64 163.927 1201.55 161.564 1203.57 160.669C1205.59 159.774 1207.95 160.686 1208.85 162.706ZM1130.55 507.814L1142.24 491.83L1149.09 496.837L1137.4 512.821L1130.55 507.814ZM1130.07 491.697C1130.41 493.88 1128.92 495.925 1126.73 496.264C1124.55 496.604 1122.51 495.109 1122.17 492.926C1121.83 490.743 1123.32 488.699 1125.5 488.359C1127.69 488.02 1129.73 489.514 1130.07 491.697ZM482.391 136.479L489.479 117.992L497.402 121.03L490.313 139.517L482.391 136.479ZM477.704 121.05C478.603 123.068 477.697 125.433 475.679 126.332C473.661 127.232 471.296 126.325 470.397 124.307C469.498 122.289 470.404 119.925 472.422 119.025C474.44 118.126 476.805 119.033 477.704 121.05ZM37.1355 199.479L44.2238 180.992L52.1466 184.03L45.0584 202.517L37.1355 199.479ZM32.4489 184.05C33.3483 186.068 32.4415 188.433 30.4237 189.332C28.4059 190.232 26.0411 189.325 25.1418 187.307C24.2425 185.289 25.1492 182.925 27.167 182.025C29.1848 181.126 31.5496 182.033 32.4489 184.05ZM1410.14 272.479L1417.22 253.992L1425.15 257.03L1418.06 275.517L1410.14 272.479ZM1405.45 257.05C1406.35 259.068 1405.44 261.433 1403.42 262.332C1401.41 263.232 1399.04 262.325 1398.14 260.307C1397.24 258.289 1398.15 255.925 1400.17 255.025C1402.18 254.126 1404.55 255.033 1405.45 257.05Z" stroke="#1A11CA" stroke-width="4" stroke-linecap="round" stroke-linejoin="round"/>
</svg>
