<svg width="1425" height="684" viewBox="0 0 1425 684" fill="none" xmlns="http://www.w3.org/2000/svg">
<path d="M153.543 195.796L205.646 197.422M181.33 188.87L164.965 170.964M200.106 209.466L188.629 196.891M545.543 45.7962L597.646 47.422M573.33 38.8704L556.965 20.9637M592.106 59.4657L580.629 46.891M1046.54 47.7962L1098.65 49.422M1074.33 40.8704L1057.96 22.9637M1093.11 61.4657L1081.63 48.891M1046.54 620.796L1098.65 622.422M1074.33 613.87L1057.96 595.964M1093.11 634.466L1081.63 621.891M502.543 394.796L554.646 396.422M530.33 387.87L513.965 369.964M549.106 408.466L537.629 395.891M773.567 644.713L803.298 647.174L808.567 661.535L800.222 672.953L784.939 672.293L773.567 644.713ZM773.567 644.713L790.89 657.374M30.5671 577.713L60.2982 580.174L65.5672 594.535L57.2223 605.953L41.9395 605.293L30.5671 577.713ZM30.5671 577.713L47.8899 590.374M730.282 40.5654L759.62 35.1536L768.466 47.6332L763.403 60.8379L748.481 64.2041L730.282 40.5654ZM730.282 40.5654L750.316 48.247M422.282 571.565L451.62 566.154L460.466 578.633L455.403 591.838L440.481 595.204L422.282 571.565ZM422.282 571.565L442.316 579.247M284.311 393.625C285.581 390.96 285.395 387.735 283.795 384.661C282.194 381.586 279.311 378.913 275.777 377.23L255.795 367.71L237.842 405.396L261.155 416.502C263.804 417.764 265.967 419.769 267.168 422.075C268.368 424.381 268.507 426.8 267.555 428.799M284.311 393.625L267.555 428.799M284.311 393.625C285.581 390.96 288.202 389.073 291.598 388.378C294.995 387.684 298.887 388.239 302.42 389.922L322.403 399.442L304.449 437.127L281.137 426.021C278.487 424.759 275.567 424.342 273.02 424.863C270.473 425.384 268.507 426.8 267.555 428.799M597.681 249.072C598.971 246.245 598.783 242.824 597.156 239.561C595.53 236.299 592.599 233.463 589.008 231.678L568.701 221.578L550.455 261.56L574.147 273.343C576.84 274.682 579.038 276.809 580.258 279.256C581.478 281.703 581.62 284.268 580.652 286.389M597.681 249.072L580.652 286.389M597.681 249.072C598.971 246.245 601.635 244.242 605.087 243.505C608.538 242.769 612.494 243.358 616.085 245.144L636.392 255.243L618.147 295.225L594.455 283.443C591.762 282.103 588.795 281.661 586.206 282.214C583.618 282.767 581.62 284.268 580.652 286.389M676.951 521.733C678.241 518.906 678.052 515.484 676.426 512.222C674.799 508.96 671.868 506.124 668.278 504.339L647.97 494.239L629.725 534.221L653.417 546.004C656.11 547.343 658.308 549.47 659.528 551.917C660.748 554.363 660.889 556.929 659.922 559.05M676.951 521.733L659.922 559.05M676.951 521.733C678.241 518.906 680.905 516.903 684.356 516.166C687.808 515.43 691.764 516.019 695.354 517.804L715.662 527.904L697.416 567.886L673.724 556.103C671.031 554.764 668.064 554.322 665.476 554.875C662.887 555.427 660.889 556.929 659.922 559.05M1226.57 26.7127L1256.3 29.174L1261.57 43.535L1253.22 54.9526L1237.94 54.2929L1226.57 26.7127ZM1226.57 26.7127L1243.89 39.3735M16.4021 414.34C17.4461 412.299 19.2584 410.755 21.4402 410.05C23.6221 409.345 25.9947 409.535 28.0363 410.579L69.6036 431.837M16.4021 414.34C15.358 416.382 15.1677 418.754 15.8731 420.936C16.5784 423.118 18.1216 424.93 20.1631 425.974L61.7304 447.232L93.2231 385.651L51.6558 364.393C49.6142 363.349 47.2415 363.159 45.0597 363.864C42.8779 364.57 41.0656 366.113 40.0215 368.154L16.4021 414.34ZM373.402 133.34C374.446 131.299 376.258 129.755 378.44 129.05C380.622 128.345 382.995 128.535 385.036 129.579L426.604 150.837M373.402 133.34C372.358 135.382 372.168 137.754 372.873 139.936C373.578 142.118 375.122 143.93 377.163 144.974L418.73 166.232L450.223 104.651L408.656 83.3932C406.614 82.3492 404.242 82.1589 402.06 82.8642C399.878 83.5696 398.066 85.1128 397.022 87.1543L373.402 133.34ZM858.402 53.3402C859.446 51.2987 861.258 49.7555 863.44 49.0501C865.622 48.3448 867.995 48.5351 870.036 49.5791L911.604 70.8366M858.402 53.3402C857.358 55.3817 857.168 57.7544 857.873 59.9363C858.578 62.1181 860.122 63.9304 862.163 64.9744L903.73 86.2319L935.223 24.6507L893.656 3.39323C891.614 2.34919 889.242 2.1589 887.06 2.86424C884.878 3.56958 883.066 5.11276 882.022 7.1543L858.402 53.3402ZM60.3114 52.6254C61.5811 49.9601 61.3953 46.7354 59.7949 43.6606C58.1945 40.5858 55.3105 37.9128 51.7774 36.2297L31.7952 26.7103L13.842 64.3961L37.1546 75.502C39.8044 76.7643 41.9674 78.7691 43.1677 81.0752C44.3681 83.3813 44.5074 85.7999 43.5551 87.7988M60.3114 52.6254L43.5551 87.7988M60.3114 52.6254C61.5811 49.9601 64.2024 48.0726 67.5985 47.3781C70.9946 46.6836 74.8873 47.239 78.4204 48.9221L98.4026 58.4415L80.4494 96.1273L57.1368 85.0214C54.487 83.759 51.5675 83.3425 49.0204 83.8633C46.4733 84.3842 44.5074 85.7999 43.5551 87.7988M1384.31 30.6254C1385.58 27.9601 1385.4 24.7354 1383.79 21.6606C1382.19 18.5858 1379.31 15.9128 1375.78 14.2297L1355.8 4.71029L1337.84 42.3961L1361.15 53.502C1363.8 54.7643 1365.97 56.7691 1367.17 59.0752C1368.37 61.3813 1368.51 63.7999 1367.56 65.7988M1384.31 30.6254L1367.56 65.7988M1384.31 30.6254C1385.58 27.9601 1388.2 26.0726 1391.6 25.3781C1394.99 24.6836 1398.89 25.239 1402.42 26.9221L1422.4 36.4415L1404.45 74.1273L1381.14 63.0214C1378.49 61.759 1375.57 61.3425 1373.02 61.8633C1370.47 62.3842 1368.51 63.7999 1367.56 65.7988M186.311 626.625C187.581 623.96 187.395 620.735 185.795 617.661C184.194 614.586 181.31 611.913 177.777 610.23L157.795 600.71L139.842 638.396L163.155 649.502C165.804 650.764 167.967 652.769 169.168 655.075C170.368 657.381 170.507 659.8 169.555 661.799M186.311 626.625L169.555 661.799M186.311 626.625C187.581 623.96 190.202 622.073 193.598 621.378C196.995 620.684 200.887 621.239 204.42 622.922L224.403 632.441L206.449 670.127L183.137 659.021C180.487 657.759 177.567 657.342 175.02 657.863C172.473 658.384 170.507 659.8 169.555 661.799M1304.31 637.625C1305.58 634.96 1305.4 631.735 1303.79 628.661C1302.19 625.586 1299.31 622.913 1295.78 621.23L1275.8 611.71L1257.84 649.396L1281.15 660.502C1283.8 661.764 1285.97 663.769 1287.17 666.075C1288.37 668.381 1288.51 670.8 1287.56 672.799M1304.31 637.625L1287.56 672.799M1304.31 637.625C1305.58 634.96 1308.2 633.073 1311.6 632.378C1314.99 631.684 1318.89 632.239 1322.42 633.922L1342.4 643.441L1324.45 681.127L1301.14 670.021C1298.49 668.759 1295.57 668.342 1293.02 668.863C1290.47 669.384 1288.51 670.8 1287.56 672.799M274.282 37.5654L303.62 32.1536L312.466 44.6332L307.403 57.8379L292.481 61.2041L274.282 37.5654ZM274.282 37.5654L294.316 45.247M2.28189 162.565L31.6198 157.154L40.4663 169.633L35.4032 182.838L20.4811 186.204L2.28189 162.565ZM2.28189 162.565L22.3162 170.247M1375.28 235.565L1404.62 230.154L1413.47 242.633L1408.4 255.838L1393.48 259.204L1375.28 235.565ZM1375.28 235.565L1395.32 243.247M195.361 211.27C196.544 208.698 202.435 208.882 208.519 211.68C214.602 214.479 218.576 218.832 217.393 221.403C216.21 223.975 210.319 223.791 204.236 220.993C198.152 218.194 194.179 213.841 195.361 211.27ZM203.928 192.645C205.11 190.074 211.001 190.258 217.085 193.056C223.169 195.854 227.142 200.207 225.959 202.779C224.776 205.35 218.886 205.166 212.802 202.368C206.718 199.57 202.745 195.217 203.928 192.645ZM587.361 61.2698C588.544 58.6983 594.435 58.8822 600.519 61.6804C606.602 64.4786 610.576 68.8316 609.393 71.4031C608.21 73.9746 602.319 73.7908 596.236 70.9926C590.152 68.1944 586.179 63.8413 587.361 61.2698ZM595.928 42.6454C597.111 40.0739 603.001 40.2577 609.085 43.056C615.169 45.8542 619.142 50.2072 617.959 52.7787C616.776 55.3502 610.886 55.1664 604.802 52.3682C598.718 49.5699 594.745 45.2169 595.928 42.6454ZM1088.36 63.2698C1089.54 60.6983 1095.43 60.8822 1101.52 63.6804C1107.6 66.4786 1111.58 70.8316 1110.39 73.4031C1109.21 75.9746 1103.32 75.7908 1097.24 72.9926C1091.15 70.1944 1087.18 65.8413 1088.36 63.2698ZM1096.93 44.6454C1098.11 42.0739 1104 42.2577 1110.08 45.056C1116.17 47.8542 1120.14 52.2072 1118.96 54.7787C1117.78 57.3502 1111.89 57.1664 1105.8 54.3682C1099.72 51.5699 1095.74 47.2169 1096.93 44.6454ZM1088.36 636.27C1089.54 633.698 1095.43 633.882 1101.52 636.68C1107.6 639.479 1111.58 643.832 1110.39 646.403C1109.21 648.975 1103.32 648.791 1097.24 645.993C1091.15 643.194 1087.18 638.841 1088.36 636.27ZM1096.93 617.645C1098.11 615.074 1104 615.258 1110.08 618.056C1116.17 620.854 1120.14 625.207 1118.96 627.779C1117.78 630.35 1111.89 630.166 1105.8 627.368C1099.72 624.57 1095.74 620.217 1096.93 617.645ZM544.361 410.27C545.544 407.698 551.435 407.882 557.519 410.68C563.602 413.479 567.576 417.832 566.393 420.403C565.21 422.975 559.319 422.791 553.236 419.993C547.152 417.194 543.179 412.841 544.361 410.27ZM552.928 391.645C554.111 389.074 560.001 389.258 566.085 392.056C572.169 394.854 576.142 399.207 574.959 401.779C573.776 404.35 567.886 404.166 561.802 401.368C555.718 398.57 551.745 394.217 552.928 391.645ZM798.553 675.236L810.236 659.251L817.087 664.258L805.404 680.243L798.553 675.236ZM798.071 659.119C798.411 661.302 796.916 663.347 794.733 663.686C792.551 664.025 790.506 662.531 790.166 660.348C789.827 658.165 791.321 656.12 793.504 655.781C795.687 655.442 797.732 656.936 798.071 659.119ZM55.5533 608.236L67.2362 592.251L74.0868 597.258L62.4039 613.243L55.5533 608.236ZM55.0714 592.119C55.4108 594.302 53.9163 596.347 51.7334 596.686C49.5505 597.025 47.5058 595.531 47.1663 593.348C46.8269 591.165 48.3214 589.12 50.5043 588.781C52.6872 588.442 54.7319 589.936 55.0714 592.119ZM762.391 63.4789L769.479 44.9922L777.402 48.03L770.313 66.5167L762.391 63.4789ZM757.704 48.0505C758.603 50.0683 757.697 52.4331 755.679 53.3324C753.661 54.2317 751.296 53.325 750.397 51.3072C749.498 49.2894 750.404 46.9246 752.422 46.0253C754.44 45.126 756.805 46.0327 757.704 48.0505ZM454.391 594.479L461.479 575.992L469.402 579.03L462.313 597.517L454.391 594.479ZM449.704 579.051C450.603 581.068 449.697 583.433 447.679 584.332C445.661 585.232 443.296 584.325 442.397 582.307C441.498 580.289 442.404 577.925 444.422 577.025C446.44 576.126 448.805 577.033 449.704 579.051ZM1251.55 57.2362L1263.24 41.2514L1270.09 46.2584L1258.4 62.2431L1251.55 57.2362ZM1251.07 41.1189C1251.41 43.3018 1249.92 45.3465 1247.73 45.6859C1245.55 46.0253 1243.51 44.5309 1243.17 42.348C1242.83 40.1651 1244.32 38.1203 1246.5 37.7809C1248.69 37.4415 1250.73 38.936 1251.07 41.1189ZM306.391 60.4789L313.479 41.9922L321.402 45.03L314.313 63.5167L306.391 60.4789ZM301.704 45.0505C302.603 47.0683 301.697 49.4331 299.679 50.3324C297.661 51.2317 295.296 50.325 294.397 48.3072C293.498 46.2894 294.404 43.9246 296.422 43.0253C298.44 42.126 300.805 43.0327 301.704 45.0505ZM34.3906 185.479L41.4789 166.992L49.4017 170.03L42.3135 188.517L34.3906 185.479ZM29.704 170.051C30.6033 172.068 29.6966 174.433 27.6788 175.332C25.661 176.232 23.2962 175.325 22.3969 173.307C21.4976 171.289 22.4043 168.925 24.4221 168.025C26.4399 167.126 28.8047 168.033 29.704 170.051ZM1407.39 258.479L1414.48 239.992L1422.4 243.03L1415.31 261.517L1407.39 258.479ZM1402.7 243.051C1403.6 245.068 1402.7 247.433 1400.68 248.332C1398.66 249.232 1396.3 248.325 1395.4 246.307C1394.5 244.289 1395.4 241.925 1397.42 241.025C1399.44 240.126 1401.8 241.033 1402.7 243.051Z" stroke="url(#paint0_linear_6_23)" stroke-width="4" stroke-linecap="round" stroke-linejoin="round"/>
<defs>
<linearGradient id="paint0_linear_6_23" x1="2.28189" y1="341.786" x2="1422.4" y2="341.786" gradientUnits="userSpaceOnUse">
<stop offset="0.00961536" stop-color="#DC1717"/>
<stop offset="0.197115" stop-color="#DB4113"/>
<stop offset="0.370192" stop-color="#1E6D21"/>
<stop offset="0.504808" stop-color="#129B17"/>
<stop offset="0.634615" stop-color="#13D519"/>
<stop offset="0.759615" stop-color="#1432B6"/>
<stop offset="0.884615" stop-color="#2F53F6"/>
</linearGradient>
</defs>
</svg>
