<svg width="1463" height="711" viewBox="0 0 1463 711" fill="none" xmlns="http://www.w3.org/2000/svg">
<path d="M524.543 45.7962L576.646 47.422M552.33 38.8704L535.965 20.9637M571.106 59.4657L559.629 46.891M101.543 676.796L153.646 678.422M129.33 669.87L112.965 651.964M148.106 690.466L136.629 677.891M1212.54 43.7962L1264.65 45.422M1240.33 36.8704L1223.96 18.9637M1259.11 57.4658L1247.63 44.891M1066.54 620.796L1118.65 622.422M1094.33 613.87L1077.96 595.964M1113.11 634.466L1101.63 621.891M2.54297 299.796L54.6456 301.422M30.3297 292.87L13.9647 274.964M49.1061 313.466L37.6289 300.891M673.567 660.713L703.298 663.174L708.567 677.535L700.222 688.953L684.94 688.293L673.567 660.713ZM673.567 660.713L690.89 673.374M50.5671 577.713L80.2982 580.174L85.5672 594.535L77.2223 605.953L61.9395 605.293L50.5671 577.713ZM50.5671 577.713L67.89 590.374M849.282 34.5654L878.62 29.1536L887.466 41.6332L882.403 54.8379L867.481 58.2041L849.282 34.5654ZM849.282 34.5654L869.316 42.247M1197.28 170.565L1226.62 165.154L1235.47 177.633L1230.4 190.838L1215.48 194.204L1197.28 170.565ZM1197.28 170.565L1217.32 178.247M722.311 44.6254C723.581 41.9601 723.395 38.7354 721.795 35.6606C720.194 32.5858 717.311 29.9128 713.777 28.2297L693.795 18.7103L675.842 56.3961L699.155 67.502C701.804 68.7643 703.967 70.7691 705.168 73.0752C706.368 75.3813 706.507 77.7999 705.555 79.7988M722.311 44.6254L705.555 79.7988M722.311 44.6254C723.581 41.9601 726.202 40.0726 729.598 39.3781C732.995 38.6836 736.887 39.239 740.42 40.9221L760.403 50.4415L742.449 88.1273L719.137 77.0214C716.487 75.759 713.567 75.3425 711.02 75.8633C708.473 76.3842 706.507 77.7999 705.555 79.7988M55.8749 419.494C57.1653 416.667 56.9765 413.245 55.35 409.983C53.7235 406.721 50.7926 403.885 47.202 402.099L26.8945 392L8.64908 431.982L32.3412 443.765C35.0341 445.104 37.2323 447.231 38.4521 449.678C39.672 452.124 39.8136 454.69 38.8458 456.811M55.8749 419.494L38.8458 456.811M55.8749 419.494C57.1653 416.667 59.8292 414.664 63.2805 413.927C66.7319 413.19 70.6881 413.78 74.2786 415.565L94.5861 425.665L76.3407 465.647L52.6486 453.864C49.9557 452.525 46.9886 452.083 44.4001 452.636C41.8115 453.188 39.8136 454.69 38.8458 456.811M226.875 239.494C228.165 236.667 227.976 233.245 226.35 229.983C224.723 226.721 221.793 223.885 218.202 222.099L197.895 212L179.649 251.982L203.341 263.765C206.034 265.104 208.232 267.231 209.452 269.678C210.672 272.124 210.814 274.69 209.846 276.811M226.875 239.494L209.846 276.811M226.875 239.494C228.165 236.667 230.829 234.664 234.281 233.927C237.732 233.19 241.688 233.78 245.279 235.565L265.586 245.665L247.341 285.647L223.649 273.864C220.956 272.525 217.989 272.083 215.4 272.636C212.812 273.188 210.814 274.69 209.846 276.811M1416.57 671.713L1446.3 674.174L1451.57 688.535L1443.22 699.953L1427.94 699.293L1416.57 671.713ZM1416.57 671.713L1433.89 684.374M915.402 671.34C916.446 669.299 918.258 667.755 920.44 667.05C922.622 666.345 924.995 666.535 927.036 667.579L968.604 688.837M915.402 671.34C914.358 673.382 914.168 675.754 914.873 677.936C915.578 680.118 917.122 681.93 919.163 682.974L960.73 704.232L992.223 642.651L950.656 621.393C948.614 620.349 946.242 620.159 944.06 620.864C941.878 621.57 940.066 623.113 939.022 625.154L915.402 671.34ZM364.402 53.3402C365.446 51.2987 367.258 49.7555 369.44 49.0501C371.622 48.3448 373.995 48.5351 376.036 49.5791L417.604 70.8366M364.402 53.3402C363.358 55.3817 363.168 57.7544 363.873 59.9363C364.578 62.1181 366.122 63.9304 368.163 64.9744L409.73 86.2319L441.223 24.6507L399.656 3.39323C397.614 2.34919 395.242 2.1589 393.06 2.86424C390.878 3.56958 389.066 5.11276 388.022 7.1543L364.402 53.3402ZM1027.4 57.3402C1028.45 55.2987 1030.26 53.7555 1032.44 53.0501C1034.62 52.3448 1036.99 52.5351 1039.04 53.5791L1080.6 74.8366M1027.4 57.3402C1026.36 59.3817 1026.17 61.7544 1026.87 63.9363C1027.58 66.1181 1029.12 67.9304 1031.16 68.9744L1072.73 90.2319L1104.22 28.6507L1062.66 7.39323C1060.61 6.34919 1058.24 6.1589 1056.06 6.86424C1053.88 7.56958 1052.07 9.11276 1051.02 11.1543L1027.4 57.3402ZM77.3114 52.6254C78.5811 49.9601 78.3954 46.7354 76.7949 43.6606C75.1945 40.5858 72.3105 37.9128 68.7774 36.2297L48.7952 26.7103L30.842 64.3961L54.1546 75.502C56.8044 76.7643 58.9674 78.7691 60.1677 81.0752C61.3681 83.3813 61.5074 85.7999 60.5551 87.7988M77.3114 52.6254L60.5551 87.7988M77.3114 52.6254C78.5811 49.9601 81.2024 48.0726 84.5985 47.3781C87.9946 46.6836 91.8873 47.239 95.4204 48.9221L115.403 58.4415L97.4495 96.1273L74.1369 85.0214C71.487 83.759 68.5675 83.3425 66.0204 83.8633C63.4733 84.3842 61.5074 85.7999 60.5551 87.7988M1401.31 30.6254C1402.58 27.9601 1402.4 24.7354 1400.79 21.6606C1399.19 18.5858 1396.31 15.9128 1392.78 14.2297L1372.8 4.71029L1354.84 42.3961L1378.15 53.502C1380.8 54.7643 1382.97 56.7691 1384.17 59.0752C1385.37 61.3813 1385.51 63.7999 1384.56 65.7988M1401.31 30.6254L1384.56 65.7988M1401.31 30.6254C1402.58 27.9601 1405.2 26.0726 1408.6 25.3781C1411.99 24.6836 1415.89 25.239 1419.42 26.9221L1439.4 36.4415L1421.45 74.1273L1398.14 63.0214C1395.49 61.759 1392.57 61.3425 1390.02 61.8633C1387.47 62.3842 1385.51 63.7999 1384.56 65.7988M443.311 664.625C444.581 661.96 444.395 658.735 442.795 655.661C441.194 652.586 438.311 649.913 434.777 648.23L414.795 638.71L396.842 676.396L420.155 687.502C422.804 688.764 424.967 690.769 426.168 693.075C427.368 695.381 427.507 697.8 426.555 699.799M443.311 664.625L426.555 699.799M443.311 664.625C444.581 661.96 447.202 660.073 450.598 659.378C453.995 658.684 457.887 659.239 461.42 660.922L481.403 670.441L463.449 708.127L440.137 697.021C437.487 695.759 434.567 695.342 432.02 695.863C429.473 696.384 427.507 697.8 426.555 699.799M1321.31 637.625C1322.58 634.96 1322.4 631.735 1320.79 628.661C1319.19 625.586 1316.31 622.913 1312.78 621.23L1292.8 611.71L1274.84 649.396L1298.15 660.502C1300.8 661.764 1302.97 663.769 1304.17 666.075C1305.37 668.381 1305.51 670.8 1304.56 672.799M1321.31 637.625L1304.56 672.799M1321.31 637.625C1322.58 634.96 1325.2 633.073 1328.6 632.378C1331.99 631.684 1335.89 632.239 1339.42 633.922L1359.4 643.441L1341.45 681.127L1318.14 670.021C1315.49 668.759 1312.57 668.342 1310.02 668.863C1307.47 669.384 1305.51 670.8 1304.56 672.799M183.282 23.5654L212.62 18.1536L221.466 30.6332L216.403 43.8379L201.481 47.2041L183.282 23.5654ZM183.282 23.5654L203.316 31.247M19.2819 162.565L48.6198 157.154L57.4663 169.633L52.4032 182.838L37.4811 186.204L19.2819 162.565ZM19.2819 162.565L39.3162 170.247M1392.28 235.565L1421.62 230.154L1430.47 242.633L1425.4 255.838L1410.48 259.204L1392.28 235.565ZM1392.28 235.565L1412.32 243.247M566.361 61.2698C567.544 58.6983 573.435 58.8822 579.519 61.6804C585.602 64.4786 589.576 68.8316 588.393 71.4031C587.21 73.9746 581.319 73.7908 575.236 70.9926C569.152 68.1944 565.179 63.8413 566.361 61.2698ZM574.928 42.6454C576.11 40.0739 582.001 40.2577 588.085 43.056C594.169 45.8542 598.142 50.2072 596.959 52.7787C595.776 55.3502 589.886 55.1664 583.802 52.3682C577.718 49.5699 573.745 45.2169 574.928 42.6454ZM143.361 692.27C144.544 689.698 150.435 689.882 156.519 692.68C162.602 695.479 166.576 699.832 165.393 702.403C164.21 704.975 158.319 704.791 152.236 701.993C146.152 699.194 142.179 694.841 143.361 692.27ZM151.928 673.645C153.11 671.074 159.001 671.258 165.085 674.056C171.169 676.854 175.142 681.207 173.959 683.779C172.776 686.35 166.886 686.166 160.802 683.368C154.718 680.57 150.745 676.217 151.928 673.645ZM1254.36 59.2698C1255.54 56.6984 1261.43 56.8822 1267.52 59.6804C1273.6 62.4786 1277.58 66.8316 1276.39 69.4031C1275.21 71.9746 1269.32 71.7908 1263.24 68.9926C1257.15 66.1944 1253.18 61.8413 1254.36 59.2698ZM1262.93 40.6454C1264.11 38.0739 1270 38.2577 1276.08 41.056C1282.17 43.8542 1286.14 48.2072 1284.96 50.7787C1283.78 53.3502 1277.89 53.1664 1271.8 50.3682C1265.72 47.5699 1261.74 43.2169 1262.93 40.6454ZM1108.36 636.27C1109.54 633.698 1115.43 633.882 1121.52 636.68C1127.6 639.479 1131.58 643.832 1130.39 646.403C1129.21 648.975 1123.32 648.791 1117.24 645.993C1111.15 643.194 1107.18 638.841 1108.36 636.27ZM1116.93 617.645C1118.11 615.074 1124 615.258 1130.08 618.056C1136.17 620.854 1140.14 625.207 1138.96 627.779C1137.78 630.35 1131.89 630.166 1125.8 627.368C1119.72 624.57 1115.74 620.217 1116.93 617.645ZM44.3614 315.27C45.5442 312.698 51.4349 312.882 57.5187 315.68C63.6025 318.479 67.5755 322.832 66.3928 325.403C65.21 327.975 59.3193 327.791 53.2355 324.993C47.1517 322.194 43.1787 317.841 44.3614 315.27ZM52.9277 296.645C54.1105 294.074 60.0012 294.258 66.085 297.056C72.1687 299.854 76.1418 304.207 74.959 306.779C73.7763 309.35 67.8856 309.166 61.8018 306.368C55.718 303.57 51.745 299.217 52.9277 296.645ZM698.553 691.236L710.236 675.251L717.087 680.258L705.404 696.243L698.553 691.236ZM698.071 675.119C698.411 677.302 696.916 679.347 694.733 679.686C692.55 680.025 690.506 678.531 690.166 676.348C689.827 674.165 691.321 672.12 693.504 671.781C695.687 671.442 697.732 672.936 698.071 675.119ZM75.5534 608.236L87.2362 592.251L94.0868 597.258L82.404 613.243L75.5534 608.236ZM75.0714 592.119C75.4108 594.302 73.9163 596.347 71.7334 596.686C69.5505 597.025 67.5058 595.531 67.1664 593.348C66.8269 591.165 68.3214 589.12 70.5043 588.781C72.6872 588.442 74.732 589.936 75.0714 592.119ZM881.391 57.4789L888.479 38.9922L896.402 42.03L889.313 60.5167L881.391 57.4789ZM876.704 42.0505C877.603 44.0683 876.697 46.4331 874.679 47.3324C872.661 48.2317 870.296 47.325 869.397 45.3072C868.498 43.2894 869.404 40.9246 871.422 40.0253C873.44 39.126 875.805 40.0327 876.704 42.0505ZM1229.39 193.479L1236.48 174.992L1244.4 178.03L1237.31 196.517L1229.39 193.479ZM1224.7 178.05C1225.6 180.068 1224.7 182.433 1222.68 183.332C1220.66 184.232 1218.3 183.325 1217.4 181.307C1216.5 179.289 1217.4 176.925 1219.42 176.025C1221.44 175.126 1223.8 176.033 1224.7 178.05ZM1441.55 702.236L1453.24 686.251L1460.09 691.258L1448.4 707.243L1441.55 702.236ZM1441.07 686.119C1441.41 688.302 1439.92 690.347 1437.73 690.686C1435.55 691.025 1433.51 689.531 1433.17 687.348C1432.83 685.165 1434.32 683.12 1436.5 682.781C1438.69 682.442 1440.73 683.936 1441.07 686.119ZM215.391 46.4789L222.479 27.9922L230.402 31.03L223.313 49.5167L215.391 46.4789ZM210.704 31.0505C211.603 33.0683 210.697 35.4331 208.679 36.3324C206.661 37.2317 204.296 36.325 203.397 34.3072C202.498 32.2894 203.404 29.9246 205.422 29.0253C207.44 28.126 209.805 29.0327 210.704 31.0505ZM51.3906 185.479L58.4789 166.992L66.4017 170.03L59.3135 188.517L51.3906 185.479ZM46.704 170.051C47.6033 172.068 46.6966 174.433 44.6788 175.332C42.661 176.232 40.2962 175.325 39.3969 173.307C38.4976 171.289 39.4043 168.925 41.4221 168.025C43.4399 167.126 45.8047 168.033 46.704 170.051ZM1424.39 258.479L1431.48 239.992L1439.4 243.03L1432.31 261.517L1424.39 258.479ZM1419.7 243.051C1420.6 245.068 1419.7 247.433 1417.68 248.332C1415.66 249.232 1413.3 248.325 1412.4 246.307C1411.5 244.289 1412.4 241.925 1414.42 241.025C1416.44 240.126 1418.8 241.033 1419.7 243.051Z" stroke="#0C00FB" stroke-width="4" stroke-linecap="round" stroke-linejoin="round"/>
</svg>
